{
    "asset" : {
        "generator" : "Khronos glTF Blender I/O v1.6.16",
        "version" : "2.0"
    },
    "scene" : 0,
    "scenes" : [
        {
            "extras" : {
                "blenderkitUI" : {
                    "assetbar_on" : 0,
                    "turn_off" : 0
                },
                "blosm" : {
                    "defaultLevels" : [
                        {
                            "levels" : 4,
                            "weight" : 10
                        },
                        {
                            "levels" : 5,
                            "weight" : 40
                        },
                        {
                            "levels" : 6,
                            "weight" : 10
                        }
                    ]
                },
                "uuid" : "d6d1b8db-607b-47f4-bec2-33811bfaed47"
            },
            "name" : "Scene",
            "nodes" : [
                0
            ]
        }
    ],
    "nodes" : [
        {
            "mesh" : 0,
            "name" : "balon_udara"
        }
    ],
    "materials" : [
        {
            "doubleSided" : true,
            "name" : "black",
            "pbrMetallicRoughness" : {
                "baseColorFactor" : [
                    0.009018149226903915,
                    0.009018149226903915,
                    0.009018149226903915,
                    1
                ],
                "metallicFactor" : 0,
                "roughnessFactor" : 0.5
            }
        },
        {
            "doubleSided" : true,
            "name" : "red",
            "pbrMetallicRoughness" : {
                "baseColorFactor" : [
                    0.8000000715255737,
                    0.005037693772464991,
                    0.07099985331296921,
                    1
                ],
                "metallicFactor" : 0,
                "roughnessFactor" : 0.5
            }
        },
        {
            "doubleSided" : true,
            "name" : "blue",
            "pbrMetallicRoughness" : {
                "baseColorFactor" : [
                    0.010181181132793427,
                    0.2739444077014923,
                    0.8000000715255737,
                    1
                ],
                "metallicFactor" : 0,
                "roughnessFactor" : 0.5
            }
        },
        {
            "doubleSided" : true,
            "name" : "white",
            "pbrMetallicRoughness" : {
                "metallicFactor" : 0,
                "roughnessFactor" : 0.5
            }
        }
    ],
    "meshes" : [
        {
            "name" : "Cube.073",
            "primitives" : [
                {
                    "attributes" : {
                        "POSITION" : 0,
                        "NORMAL" : 1,
                        "TEXCOORD_0" : 2
                    },
                    "indices" : 3,
                    "material" : 0
                },
                {
                    "attributes" : {
                        "POSITION" : 4,
                        "NORMAL" : 5,
                        "TEXCOORD_0" : 6
                    },
                    "indices" : 7,
                    "material" : 1
                },
                {
                    "attributes" : {
                        "POSITION" : 8,
                        "NORMAL" : 9,
                        "TEXCOORD_0" : 10
                    },
                    "indices" : 11,
                    "material" : 2
                },
                {
                    "attributes" : {
                        "POSITION" : 12,
                        "NORMAL" : 13,
                        "TEXCOORD_0" : 14
                    },
                    "indices" : 15,
                    "material" : 3
                }
            ]
        }
    ],
    "accessors" : [
        {
            "bufferView" : 0,
            "componentType" : 5126,
            "count" : 160,
            "max" : [
                0.5620555877685547,
                0.705937385559082,
                0.564295768737793
            ],
            "min" : [
                -0.5513606071472168,
                -0.6275511980056763,
                -0.5563836097717285
            ],
            "type" : "VEC3"
        },
        {
            "bufferView" : 1,
            "componentType" : 5126,
            "count" : 160,
            "type" : "VEC3"
        },
        {
            "bufferView" : 2,
            "componentType" : 5126,
            "count" : 160,
            "type" : "VEC2"
        },
        {
            "bufferView" : 3,
            "componentType" : 5123,
            "count" : 240,
            "type" : "SCALAR"
        },
        {
            "bufferView" : 4,
            "componentType" : 5126,
            "count" : 1559,
            "max" : [
                1.7645339965820312,
                2.6714532375335693,
                1
            ],
            "min" : [
                -1.7675707340240479,
                -0.8275511860847473,
                -1
            ],
            "type" : "VEC3"
        },
        {
            "bufferView" : 5,
            "componentType" : 5126,
            "count" : 1559,
            "type" : "VEC3"
        },
        {
            "bufferView" : 6,
            "componentType" : 5126,
            "count" : 1559,
            "type" : "VEC2"
        },
        {
            "bufferView" : 7,
            "componentType" : 5123,
            "count" : 2850,
            "type" : "SCALAR"
        },
        {
            "bufferView" : 8,
            "componentType" : 5126,
            "count" : 240,
            "max" : [
                1.6570531129837036,
                3.9372482299804688,
                1.742326021194458
            ],
            "min" : [
                -1.6570531129837036,
                0.28572726249694824,
                -1.742326021194458
            ],
            "type" : "VEC3"
        },
        {
            "bufferView" : 9,
            "componentType" : 5126,
            "count" : 240,
            "type" : "VEC3"
        },
        {
            "bufferView" : 10,
            "componentType" : 5126,
            "count" : 240,
            "type" : "VEC2"
        },
        {
            "bufferView" : 11,
            "componentType" : 5123,
            "count" : 240,
            "type" : "SCALAR"
        },
        {
            "bufferView" : 12,
            "componentType" : 5126,
            "count" : 8,
            "max" : [
                1.6953541040420532,
                2.565244674682617,
                0.8418229222297668
            ],
            "min" : [
                -1.6953541040420532,
                1.434755563735962,
                -0.8418229222297668
            ],
            "type" : "VEC3"
        },
        {
            "bufferView" : 13,
            "componentType" : 5126,
            "count" : 8,
            "type" : "VEC3"
        },
        {
            "bufferView" : 14,
            "componentType" : 5126,
            "count" : 8,
            "type" : "VEC2"
        },
        {
            "bufferView" : 15,
            "componentType" : 5123,
            "count" : 12,
            "type" : "SCALAR"
        }
    ],
    "bufferViews" : [
        {
            "buffer" : 0,
            "byteLength" : 1920,
            "byteOffset" : 0
        },
        {
            "buffer" : 0,
            "byteLength" : 1920,
            "byteOffset" : 1920
        },
        {
            "buffer" : 0,
            "byteLength" : 1280,
            "byteOffset" : 3840
        },
        {
            "buffer" : 0,
            "byteLength" : 480,
            "byteOffset" : 5120
        },
        {
            "buffer" : 0,
            "byteLength" : 18708,
            "byteOffset" : 5600
        },
        {
            "buffer" : 0,
            "byteLength" : 18708,
            "byteOffset" : 24308
        },
        {
            "buffer" : 0,
            "byteLength" : 12472,
            "byteOffset" : 43016
        },
        {
            "buffer" : 0,
            "byteLength" : 5700,
            "byteOffset" : 55488
        },
        {
            "buffer" : 0,
            "byteLength" : 2880,
            "byteOffset" : 61188
        },
        {
            "buffer" : 0,
            "byteLength" : 2880,
            "byteOffset" : 64068
        },
        {
            "buffer" : 0,
            "byteLength" : 1920,
            "byteOffset" : 66948
        },
        {
            "buffer" : 0,
            "byteLength" : 480,
            "byteOffset" : 68868
        },
        {
            "buffer" : 0,
            "byteLength" : 96,
            "byteOffset" : 69348
        },
        {
            "buffer" : 0,
            "byteLength" : 96,
            "byteOffset" : 69444
        },
        {
            "buffer" : 0,
            "byteLength" : 64,
            "byteOffset" : 69540
        },
        {
            "buffer" : 0,
            "byteLength" : 24,
            "byteOffset" : 69604
        }
    ],
    "buffers" : [
        {
            "byteLength" : 69628,
            "uri" : "data:application/octet-stream;base64,"
        }
    ]
}
