{
    "asset" : {
        "generator" : "Khronos glTF Blender I/O v1.6.16",
        "version" : "2.0"
    },
    "scene" : 0,
    "scenes" : [
        {
            "name" : "Scene",
            "nodes" : [
                0
            ]
        }
    ],
    "nodes" : [
        {
            "mesh" : 0,
            "name" : "kapal_terbang",
            "rotation" : [
                0,
                0.34200096130371094,
                0,
                0.9396997094154358
            ],
            "translation" : [
                20.122465133666992,
                16.33880615234375,
                -10.086237907409668
            ]
        }
    ],
    "animations" : [
        {
            "channels" : [
                {
                    "sampler" : 0,
                    "target" : {
                        "node" : 0,
                        "path" : "translation"
                    }
                },
                {
                    "sampler" : 1,
                    "target" : {
                        "node" : 0,
                        "path" : "rotation"
                    }
                }
            ],
            "name" : "kapal_terbangAction",
            "samplers" : [
                {
                    "input" : 20,
                    "interpolation" : "LINEAR",
                    "output" : 21
                },
                {
                    "input" : 20,
                    "interpolation" : "LINEAR",
                    "output" : 22
                }
            ]
        }
    ],
    "materials" : [
        {
            "doubleSided" : true,
            "name" : "base",
            "pbrMetallicRoughness" : {
                "baseColorFactor" : [
                    0.2956918776035309,
                    0.2956918776035309,
                    0.2956918776035309,
                    1
                ],
                "metallicFactor" : 0,
                "roughnessFactor" : 0.4000000059604645
            }
        },
        {
            "doubleSided" : true,
            "name" : "white",
            "pbrMetallicRoughness" : {
                "metallicFactor" : 0,
                "roughnessFactor" : 0.5
            }
        },
        {
            "doubleSided" : true,
            "name" : "red",
            "pbrMetallicRoughness" : {
                "baseColorFactor" : [
                    0.8000000715255737,
                    0.005037693772464991,
                    0.07099985331296921,
                    1
                ],
                "metallicFactor" : 0,
                "roughnessFactor" : 0.5
            }
        },
        {
            "doubleSided" : true,
            "name" : "blue",
            "pbrMetallicRoughness" : {
                "baseColorFactor" : [
                    0.010181181132793427,
                    0.2739444077014923,
                    0.8000000715255737,
                    1
                ],
                "metallicFactor" : 0,
                "roughnessFactor" : 0.5
            }
        },
        {
            "doubleSided" : true,
            "name" : "black",
            "pbrMetallicRoughness" : {
                "baseColorFactor" : [
                    0.009018149226903915,
                    0.009018149226903915,
                    0.009018149226903915,
                    1
                ],
                "metallicFactor" : 0,
                "roughnessFactor" : 0.5
            }
        }
    ],
    "meshes" : [
        {
            "name" : "Icosphere",
            "primitives" : [
                {
                    "attributes" : {
                        "POSITION" : 0,
                        "NORMAL" : 1,
                        "TEXCOORD_0" : 2
                    },
                    "indices" : 3,
                    "material" : 0
                },
                {
                    "attributes" : {
                        "POSITION" : 4,
                        "NORMAL" : 5,
                        "TEXCOORD_0" : 6
                    },
                    "indices" : 7,
                    "material" : 1
                },
                {
                    "attributes" : {
                        "POSITION" : 8,
                        "NORMAL" : 9,
                        "TEXCOORD_0" : 10
                    },
                    "indices" : 11,
                    "material" : 2
                },
                {
                    "attributes" : {
                        "POSITION" : 12,
                        "NORMAL" : 13,
                        "TEXCOORD_0" : 14
                    },
                    "indices" : 15,
                    "material" : 3
                },
                {
                    "attributes" : {
                        "POSITION" : 16,
                        "NORMAL" : 17,
                        "TEXCOORD_0" : 18
                    },
                    "indices" : 19,
                    "material" : 4
                }
            ]
        }
    ],
    "accessors" : [
        {
            "bufferView" : 0,
            "componentType" : 5126,
            "count" : 4,
            "max" : [
                1,
                -0.8000000715255737,
                0.3999999761581421
            ],
            "min" : [
                -1,
                -0.8000000715255737,
                -0.3999999761581421
            ],
            "type" : "VEC3"
        },
        {
            "bufferView" : 1,
            "componentType" : 5126,
            "count" : 4,
            "type" : "VEC3"
        },
        {
            "bufferView" : 2,
            "componentType" : 5126,
            "count" : 4,
            "type" : "VEC2"
        },
        {
            "bufferView" : 3,
            "componentType" : 5123,
            "count" : 6,
            "type" : "SCALAR"
        },
        {
            "bufferView" : 4,
            "componentType" : 5126,
            "count" : 8,
            "max" : [
                1.1360911130905151,
                0.5277279615402222,
                1.301480770111084
            ],
            "min" : [
                -1.1360911130905151,
                -0.5277279615402222,
                -1.301480770111084
            ],
            "type" : "VEC3"
        },
        {
            "bufferView" : 5,
            "componentType" : 5126,
            "count" : 8,
            "type" : "VEC3"
        },
        {
            "bufferView" : 6,
            "componentType" : 5126,
            "count" : 8,
            "type" : "VEC2"
        },
        {
            "bufferView" : 7,
            "componentType" : 5123,
            "count" : 12,
            "type" : "SCALAR"
        },
        {
            "bufferView" : 8,
            "componentType" : 5126,
            "count" : 3759,
            "max" : [
                1.3599531650543213,
                0.6317145824432373,
                1.4016655683517456
            ],
            "min" : [
                -1.3599531650543213,
                -0.6317145824432373,
                -1.4016655683517456
            ],
            "type" : "VEC3"
        },
        {
            "bufferView" : 9,
            "componentType" : 5126,
            "count" : 3759,
            "type" : "VEC3"
        },
        {
            "bufferView" : 10,
            "componentType" : 5126,
            "count" : 3759,
            "type" : "VEC2"
        },
        {
            "bufferView" : 11,
            "componentType" : 5123,
            "count" : 8664,
            "type" : "SCALAR"
        },
        {
            "bufferView" : 12,
            "componentType" : 5126,
            "count" : 240,
            "max" : [
                2.6933791637420654,
                1.2872647047042847,
                1.2872645854949951
            ],
            "min" : [
                -2.6933791637420654,
                -1.2872647047042847,
                -1.2872645854949951
            ],
            "type" : "VEC3"
        },
        {
            "bufferView" : 13,
            "componentType" : 5126,
            "count" : 240,
            "type" : "VEC3"
        },
        {
            "bufferView" : 14,
            "componentType" : 5126,
            "count" : 240,
            "type" : "VEC2"
        },
        {
            "bufferView" : 15,
            "componentType" : 5123,
            "count" : 240,
            "type" : "SCALAR"
        },
        {
            "bufferView" : 16,
            "componentType" : 5126,
            "count" : 46,
            "max" : [
                1,
                -0.8000000715255737,
                0.3999999761581421
            ],
            "min" : [
                -1,
                -1.8128037452697754,
                -0.3999999761581421
            ],
            "type" : "VEC3"
        },
        {
            "bufferView" : 17,
            "componentType" : 5126,
            "count" : 46,
            "type" : "VEC3"
        },
        {
            "bufferView" : 18,
            "componentType" : 5126,
            "count" : 46,
            "type" : "VEC2"
        },
        {
            "bufferView" : 19,
            "componentType" : 5123,
            "count" : 78,
            "type" : "SCALAR"
        },
        {
            "bufferView" : 20,
            "componentType" : 5126,
            "count" : 1500,
            "max" : [
                62.5
            ],
            "min" : [
                0.041666666666666664
            ],
            "type" : "SCALAR"
        },
        {
            "bufferView" : 21,
            "componentType" : 5126,
            "count" : 1500,
            "type" : "VEC3"
        },
        {
            "bufferView" : 22,
            "componentType" : 5126,
            "count" : 1500,
            "type" : "VEC4"
        }
    ],
    "bufferViews" : [
        {
            "buffer" : 0,
            "byteLength" : 48,
            "byteOffset" : 0
        },
        {
            "buffer" : 0,
            "byteLength" : 48,
            "byteOffset" : 48
        },
        {
            "buffer" : 0,
            "byteLength" : 32,
            "byteOffset" : 96
        },
        {
            "buffer" : 0,
            "byteLength" : 12,
            "byteOffset" : 128
        },
        {
            "buffer" : 0,
            "byteLength" : 96,
            "byteOffset" : 140
        },
        {
            "buffer" : 0,
            "byteLength" : 96,
            "byteOffset" : 236
        },
        {
            "buffer" : 0,
            "byteLength" : 64,
            "byteOffset" : 332
        },
        {
            "buffer" : 0,
            "byteLength" : 24,
            "byteOffset" : 396
        },
        {
            "buffer" : 0,
            "byteLength" : 45108,
            "byteOffset" : 420
        },
        {
            "buffer" : 0,
            "byteLength" : 45108,
            "byteOffset" : 45528
        },
        {
            "buffer" : 0,
            "byteLength" : 30072,
            "byteOffset" : 90636
        },
        {
            "buffer" : 0,
            "byteLength" : 17328,
            "byteOffset" : 120708
        },
        {
            "buffer" : 0,
            "byteLength" : 2880,
            "byteOffset" : 138036
        },
        {
            "buffer" : 0,
            "byteLength" : 2880,
            "byteOffset" : 140916
        },
        {
            "buffer" : 0,
            "byteLength" : 1920,
            "byteOffset" : 143796
        },
        {
            "buffer" : 0,
            "byteLength" : 480,
            "byteOffset" : 145716
        },
        {
            "buffer" : 0,
            "byteLength" : 552,
            "byteOffset" : 146196
        },
        {
            "buffer" : 0,
            "byteLength" : 552,
            "byteOffset" : 146748
        },
        {
            "buffer" : 0,
            "byteLength" : 368,
            "byteOffset" : 147300
        },
        {
            "buffer" : 0,
            "byteLength" : 156,
            "byteOffset" : 147668
        },
        {
            "buffer" : 0,
            "byteLength" : 6000,
            "byteOffset" : 147824
        },
        {
            "buffer" : 0,
            "byteLength" : 18000,
            "byteOffset" : 153824
        },
        {
            "buffer" : 0,
            "byteLength" : 24000,
            "byteOffset" : 171824
        }
    ],
    "buffers" : [
        {
            "byteLength" : 195824,
            "uri" : "data:application/octet-stream;base64,"
        }
    ]
}
