{
    "asset" : {
        "generator" : "Khronos glTF Blender I/O v1.6.16",
        "version" : "2.0"
    },
    "scene" : 0,
    "scenes" : [
        {
            "extras" : {
                "blenderkitUI" : {
                    "assetbar_on" : 0,
                    "turn_off" : 0
                },
                "blosm" : {
                    "defaultLevels" : [
                        {
                            "levels" : 4,
                            "weight" : 10
                        },
                        {
                            "levels" : 5,
                            "weight" : 40
                        },
                        {
                            "levels" : 6,
                            "weight" : 10
                        }
                    ]
                },
                "uuid" : "d6d1b8db-607b-47f4-bec2-33811bfaed47"
            },
            "name" : "Scene",
            "nodes" : [
                0,
                1
            ]
        }
    ],
    "nodes" : [
        {
            "mesh" : 0,
            "name" : "mobil",
            "translation" : [
                0.20000000298023224,
                0.10999999940395355,
                -12
            ]
        },
        {
            "mesh" : 1,
            "name" : "mobil.001",
            "rotation" : [
                0,
                1,
                0,
                -1.6292068494294654e-07
            ],
            "translation" : [
                1.9225705862045288,
                0.10999999940395355,
                11.347900390625
            ]
        }
    ],
    "animations" : [
        {
            "channels" : [
                {
                    "sampler" : 0,
                    "target" : {
                        "node" : 0,
                        "path" : "translation"
                    }
                },
                {
                    "sampler" : 1,
                    "target" : {
                        "node" : 0,
                        "path" : "rotation"
                    }
                }
            ],
            "name" : "CubeAction",
            "samplers" : [
                {
                    "input" : 28,
                    "interpolation" : "LINEAR",
                    "output" : 29
                },
                {
                    "input" : 28,
                    "interpolation" : "LINEAR",
                    "output" : 30
                }
            ]
        },
        {
            "channels" : [
                {
                    "sampler" : 0,
                    "target" : {
                        "node" : 1,
                        "path" : "translation"
                    }
                },
                {
                    "sampler" : 1,
                    "target" : {
                        "node" : 1,
                        "path" : "rotation"
                    }
                }
            ],
            "name" : "mobil.001Action",
            "samplers" : [
                {
                    "input" : 31,
                    "interpolation" : "LINEAR",
                    "output" : 32
                },
                {
                    "input" : 31,
                    "interpolation" : "LINEAR",
                    "output" : 33
                }
            ]
        }
    ],
    "materials" : [
        {
            "doubleSided" : true,
            "name" : "red",
            "pbrMetallicRoughness" : {
                "baseColorFactor" : [
                    0.8000000715255737,
                    0.005037693772464991,
                    0.07099985331296921,
                    1
                ],
                "metallicFactor" : 0,
                "roughnessFactor" : 0.5
            }
        },
        {
            "doubleSided" : true,
            "name" : "blue",
            "pbrMetallicRoughness" : {
                "baseColorFactor" : [
                    0.010181181132793427,
                    0.2739444077014923,
                    0.8000000715255737,
                    1
                ],
                "metallicFactor" : 0,
                "roughnessFactor" : 0.5
            }
        },
        {
            "doubleSided" : true,
            "name" : "white",
            "pbrMetallicRoughness" : {
                "metallicFactor" : 0,
                "roughnessFactor" : 0.5
            }
        },
        {
            "doubleSided" : true,
            "name" : "black",
            "pbrMetallicRoughness" : {
                "baseColorFactor" : [
                    0.009018149226903915,
                    0.009018149226903915,
                    0.009018149226903915,
                    1
                ],
                "metallicFactor" : 0,
                "roughnessFactor" : 0.5
            }
        },
        {
            "doubleSided" : true,
            "name" : "yellow",
            "pbrMetallicRoughness" : {
                "baseColorFactor" : [
                    0.4868970215320587,
                    0.3607423007488251,
                    0.06410621106624603,
                    1
                ],
                "metallicFactor" : 0,
                "roughnessFactor" : 0.5
            }
        }
    ],
    "meshes" : [
        {
            "name" : "Cube.071",
            "primitives" : [
                {
                    "attributes" : {
                        "POSITION" : 0,
                        "NORMAL" : 1,
                        "TEXCOORD_0" : 2
                    },
                    "indices" : 3,
                    "material" : 0
                },
                {
                    "attributes" : {
                        "POSITION" : 4,
                        "NORMAL" : 5,
                        "TEXCOORD_0" : 6
                    },
                    "indices" : 7,
                    "material" : 1
                },
                {
                    "attributes" : {
                        "POSITION" : 8,
                        "NORMAL" : 9,
                        "TEXCOORD_0" : 10
                    },
                    "indices" : 11,
                    "material" : 2
                },
                {
                    "attributes" : {
                        "POSITION" : 12,
                        "NORMAL" : 13,
                        "TEXCOORD_0" : 14
                    },
                    "indices" : 15,
                    "material" : 3
                }
            ]
        },
        {
            "name" : "Cube.072",
            "primitives" : [
                {
                    "attributes" : {
                        "POSITION" : 16,
                        "NORMAL" : 17,
                        "TEXCOORD_0" : 18
                    },
                    "indices" : 3,
                    "material" : 4
                },
                {
                    "attributes" : {
                        "POSITION" : 19,
                        "NORMAL" : 20,
                        "TEXCOORD_0" : 21
                    },
                    "indices" : 7,
                    "material" : 1
                },
                {
                    "attributes" : {
                        "POSITION" : 22,
                        "NORMAL" : 23,
                        "TEXCOORD_0" : 24
                    },
                    "indices" : 11,
                    "material" : 2
                },
                {
                    "attributes" : {
                        "POSITION" : 25,
                        "NORMAL" : 26,
                        "TEXCOORD_0" : 27
                    },
                    "indices" : 15,
                    "material" : 3
                }
            ]
        }
    ],
    "accessors" : [
        {
            "bufferView" : 0,
            "componentType" : 5126,
            "count" : 118,
            "max" : [
                0.3328344523906708,
                0.5058392286300659,
                0.7132167220115662
            ],
            "min" : [
                -0.3328344523906708,
                0.002826392650604248,
                -0.5950113534927368
            ],
            "type" : "VEC3"
        },
        {
            "bufferView" : 1,
            "componentType" : 5126,
            "count" : 118,
            "type" : "VEC3"
        },
        {
            "bufferView" : 2,
            "componentType" : 5126,
            "count" : 118,
            "type" : "VEC2"
        },
        {
            "bufferView" : 3,
            "componentType" : 5123,
            "count" : 264,
            "type" : "SCALAR"
        },
        {
            "bufferView" : 4,
            "componentType" : 5126,
            "count" : 16,
            "max" : [
                0.3328344523906708,
                0.49742576479911804,
                0.4396739900112152
            ],
            "min" : [
                -0.3328344523906708,
                0.3175910413265228,
                -0.5714621543884277
            ],
            "type" : "VEC3"
        },
        {
            "bufferView" : 5,
            "componentType" : 5126,
            "count" : 16,
            "type" : "VEC3"
        },
        {
            "bufferView" : 6,
            "componentType" : 5126,
            "count" : 16,
            "type" : "VEC2"
        },
        {
            "bufferView" : 7,
            "componentType" : 5123,
            "count" : 30,
            "type" : "SCALAR"
        },
        {
            "bufferView" : 8,
            "componentType" : 5126,
            "count" : 4,
            "max" : [
                0.1451151967048645,
                0.10407648980617523,
                0.7132167220115662
            ],
            "min" : [
                -0.1451151967048645,
                0.012707062065601349,
                0.7132167220115662
            ],
            "type" : "VEC3"
        },
        {
            "bufferView" : 9,
            "componentType" : 5126,
            "count" : 4,
            "type" : "VEC3"
        },
        {
            "bufferView" : 10,
            "componentType" : 5126,
            "count" : 4,
            "type" : "VEC2"
        },
        {
            "bufferView" : 11,
            "componentType" : 5123,
            "count" : 6,
            "type" : "SCALAR"
        },
        {
            "bufferView" : 12,
            "componentType" : 5126,
            "count" : 192,
            "max" : [
                0.3914666473865509,
                0.10255607217550278,
                0.44795796275138855
            ],
            "min" : [
                -0.3914666473865509,
                -0.1025560274720192,
                -0.44795796275138855
            ],
            "type" : "VEC3"
        },
        {
            "bufferView" : 13,
            "componentType" : 5126,
            "count" : 192,
            "type" : "VEC3"
        },
        {
            "bufferView" : 14,
            "componentType" : 5126,
            "count" : 192,
            "type" : "VEC2"
        },
        {
            "bufferView" : 15,
            "componentType" : 5123,
            "count" : 336,
            "type" : "SCALAR"
        },
        {
            "bufferView" : 16,
            "componentType" : 5126,
            "count" : 118,
            "max" : [
                0.3328344523906708,
                0.5058392286300659,
                0.7132167220115662
            ],
            "min" : [
                -0.3328344523906708,
                0.002826392650604248,
                -0.5950113534927368
            ],
            "type" : "VEC3"
        },
        {
            "bufferView" : 17,
            "componentType" : 5126,
            "count" : 118,
            "type" : "VEC3"
        },
        {
            "bufferView" : 18,
            "componentType" : 5126,
            "count" : 118,
            "type" : "VEC2"
        },
        {
            "bufferView" : 19,
            "componentType" : 5126,
            "count" : 16,
            "max" : [
                0.3328344523906708,
                0.49742576479911804,
                0.4396739900112152
            ],
            "min" : [
                -0.3328344523906708,
                0.3175910413265228,
                -0.5714621543884277
            ],
            "type" : "VEC3"
        },
        {
            "bufferView" : 20,
            "componentType" : 5126,
            "count" : 16,
            "type" : "VEC3"
        },
        {
            "bufferView" : 21,
            "componentType" : 5126,
            "count" : 16,
            "type" : "VEC2"
        },
        {
            "bufferView" : 22,
            "componentType" : 5126,
            "count" : 4,
            "max" : [
                0.1451151967048645,
                0.10407648980617523,
                0.7132167220115662
            ],
            "min" : [
                -0.1451151967048645,
                0.012707062065601349,
                0.7132167220115662
            ],
            "type" : "VEC3"
        },
        {
            "bufferView" : 23,
            "componentType" : 5126,
            "count" : 4,
            "type" : "VEC3"
        },
        {
            "bufferView" : 24,
            "componentType" : 5126,
            "count" : 4,
            "type" : "VEC2"
        },
        {
            "bufferView" : 25,
            "componentType" : 5126,
            "count" : 192,
            "max" : [
                0.3914666473865509,
                0.10255607217550278,
                0.44795796275138855
            ],
            "min" : [
                -0.3914666473865509,
                -0.1025560274720192,
                -0.44795796275138855
            ],
            "type" : "VEC3"
        },
        {
            "bufferView" : 26,
            "componentType" : 5126,
            "count" : 192,
            "type" : "VEC3"
        },
        {
            "bufferView" : 27,
            "componentType" : 5126,
            "count" : 192,
            "type" : "VEC2"
        },
        {
            "bufferView" : 28,
            "componentType" : 5126,
            "count" : 520,
            "max" : [
                21.666666666666668
            ],
            "min" : [
                0.041666666666666664
            ],
            "type" : "SCALAR"
        },
        {
            "bufferView" : 29,
            "componentType" : 5126,
            "count" : 520,
            "type" : "VEC3"
        },
        {
            "bufferView" : 30,
            "componentType" : 5126,
            "count" : 520,
            "type" : "VEC4"
        },
        {
            "bufferView" : 31,
            "componentType" : 5126,
            "count" : 725,
            "max" : [
                30.208333333333332
            ],
            "min" : [
                0.041666666666666664
            ],
            "type" : "SCALAR"
        },
        {
            "bufferView" : 32,
            "componentType" : 5126,
            "count" : 725,
            "type" : "VEC3"
        },
        {
            "bufferView" : 33,
            "componentType" : 5126,
            "count" : 725,
            "type" : "VEC4"
        }
    ],
    "bufferViews" : [
        {
            "buffer" : 0,
            "byteLength" : 1416,
            "byteOffset" : 0
        },
        {
            "buffer" : 0,
            "byteLength" : 1416,
            "byteOffset" : 1416
        },
        {
            "buffer" : 0,
            "byteLength" : 944,
            "byteOffset" : 2832
        },
        {
            "buffer" : 0,
            "byteLength" : 528,
            "byteOffset" : 3776
        },
        {
            "buffer" : 0,
            "byteLength" : 192,
            "byteOffset" : 4304
        },
        {
            "buffer" : 0,
            "byteLength" : 192,
            "byteOffset" : 4496
        },
        {
            "buffer" : 0,
            "byteLength" : 128,
            "byteOffset" : 4688
        },
        {
            "buffer" : 0,
            "byteLength" : 60,
            "byteOffset" : 4816
        },
        {
            "buffer" : 0,
            "byteLength" : 48,
            "byteOffset" : 4876
        },
        {
            "buffer" : 0,
            "byteLength" : 48,
            "byteOffset" : 4924
        },
        {
            "buffer" : 0,
            "byteLength" : 32,
            "byteOffset" : 4972
        },
        {
            "buffer" : 0,
            "byteLength" : 12,
            "byteOffset" : 5004
        },
        {
            "buffer" : 0,
            "byteLength" : 2304,
            "byteOffset" : 5016
        },
        {
            "buffer" : 0,
            "byteLength" : 2304,
            "byteOffset" : 7320
        },
        {
            "buffer" : 0,
            "byteLength" : 1536,
            "byteOffset" : 9624
        },
        {
            "buffer" : 0,
            "byteLength" : 672,
            "byteOffset" : 11160
        },
        {
            "buffer" : 0,
            "byteLength" : 1416,
            "byteOffset" : 11832
        },
        {
            "buffer" : 0,
            "byteLength" : 1416,
            "byteOffset" : 13248
        },
        {
            "buffer" : 0,
            "byteLength" : 944,
            "byteOffset" : 14664
        },
        {
            "buffer" : 0,
            "byteLength" : 192,
            "byteOffset" : 15608
        },
        {
            "buffer" : 0,
            "byteLength" : 192,
            "byteOffset" : 15800
        },
        {
            "buffer" : 0,
            "byteLength" : 128,
            "byteOffset" : 15992
        },
        {
            "buffer" : 0,
            "byteLength" : 48,
            "byteOffset" : 16120
        },
        {
            "buffer" : 0,
            "byteLength" : 48,
            "byteOffset" : 16168
        },
        {
            "buffer" : 0,
            "byteLength" : 32,
            "byteOffset" : 16216
        },
        {
            "buffer" : 0,
            "byteLength" : 2304,
            "byteOffset" : 16248
        },
        {
            "buffer" : 0,
            "byteLength" : 2304,
            "byteOffset" : 18552
        },
        {
            "buffer" : 0,
            "byteLength" : 1536,
            "byteOffset" : 20856
        },
        {
            "buffer" : 0,
            "byteLength" : 2080,
            "byteOffset" : 22392
        },
        {
            "buffer" : 0,
            "byteLength" : 6240,
            "byteOffset" : 24472
        },
        {
            "buffer" : 0,
            "byteLength" : 8320,
            "byteOffset" : 30712
        },
        {
            "buffer" : 0,
            "byteLength" : 2900,
            "byteOffset" : 39032
        },
        {
            "buffer" : 0,
            "byteLength" : 8700,
            "byteOffset" : 41932
        },
        {
            "buffer" : 0,
            "byteLength" : 11600,
            "byteOffset" : 50632
        }
    ],
    "buffers" : [
        {
            "byteLength" : 62232,
            "uri" : "data:application/octet-stream;base64,"
        }
    ]
}
